<svg width="15" height="16" viewBox="0 0 15 16" fill="none" xmlns="http://www.w3.org/2000/svg">
<g clip-path="url(#clip0_423_3364)">
<path d="M11.1201 0.399414V4.07941M11.1201 8.39941L11.1201 15.5994M3.28012 0.399414V7.59941M3.28012 11.9178V15.5978" stroke="white"/>
<path d="M0.800743 9.67971C0.800743 11.0494 1.91108 12.1597 3.28074 12.1597C4.65041 12.1597 5.76074 11.0494 5.76074 9.67971C5.76074 8.31004 4.65041 7.19971 3.28074 7.19971C1.91108 7.19971 0.800743 8.31004 0.800743 9.67971Z" stroke="white"/>
<path d="M8.64059 6.32029C8.64059 4.95063 9.75092 3.84029 11.1206 3.84029C12.4903 3.84029 13.6006 4.95063 13.6006 6.32029C13.6006 7.68996 12.4903 8.80029 11.1206 8.80029C9.75092 8.80029 8.64059 7.68996 8.64059 6.32029Z" stroke="white"/>
</g>
<defs>
<clipPath id="clip0_423_3364">
<rect width="16" height="14.4" fill="white" transform="matrix(0 1 -1 0 14.4004 0)"/>
</clipPath>
</defs>
</svg>
