<svg width="98" height="17" viewBox="0 0 98 17" fill="none" xmlns="http://www.w3.org/2000/svg">
<g clip-path="url(#clip0_392_7302)">
<path d="M8.9975 0L11.3775 5.723L17.5575 6.219L12.8495 10.251L14.2875 16.281L8.9975 13.05L3.7075 16.281L5.1455 10.251L0.4375 6.22L6.6175 5.724L8.9975 0Z" fill="white"/>
</g>
<g clip-path="url(#clip1_392_7302)">
<path d="M28.9975 0L31.3775 5.723L37.5575 6.219L32.8495 10.251L34.2875 16.281L28.9975 13.05L23.7075 16.281L25.1455 10.251L20.4375 6.22L26.6175 5.724L28.9975 0Z" fill="white"/>
</g>
<g clip-path="url(#clip2_392_7302)">
<path d="M48.9975 0L51.3775 5.723L57.5575 6.219L52.8495 10.251L54.2875 16.281L48.9975 13.05L43.7075 16.281L45.1455 10.251L40.4375 6.22L46.6175 5.724L48.9975 0Z" fill="white"/>
</g>
<g clip-path="url(#clip3_392_7302)">
<path d="M68.9975 0L71.3775 5.723L77.5575 6.219L72.8495 10.251L74.2875 16.281L68.9975 13.05L63.7075 16.281L65.1455 10.251L60.4375 6.22L66.6175 5.724L68.9975 0Z" fill="white"/>
</g>
<g clip-path="url(#clip4_392_7302)">
<path d="M88.9975 0L91.3775 5.723L97.5575 6.219L92.8495 10.251L94.2875 16.281L88.9975 13.05L83.7075 16.281L85.1455 10.251L80.4375 6.22L86.6175 5.724L88.9975 0Z" fill="white"/>
</g>
<defs>
<clipPath id="clip0_392_7302">
<rect width="18" height="17" fill="white"/>
</clipPath>
<clipPath id="clip1_392_7302">
<rect width="18" height="17" fill="white" transform="translate(20)"/>
</clipPath>
<clipPath id="clip2_392_7302">
<rect width="18" height="17" fill="white" transform="translate(40)"/>
</clipPath>
<clipPath id="clip3_392_7302">
<rect width="18" height="17" fill="white" transform="translate(60)"/>
</clipPath>
<clipPath id="clip4_392_7302">
<rect width="18" height="17" fill="white" transform="translate(80)"/>
</clipPath>
</defs>
</svg>
