<svg width="82" height="20" viewBox="0 0 82 20" fill="none" xmlns="http://www.w3.org/2000/svg">
<g clip-path="url(#clip0_436_4138)">
<path d="M42.1603 6.09113H39.4673L37.5616 9.48262H36.5806L36.5493 2.14282H34V15.3988H36.5493L36.5806 11.7605H37.5553L40.0859 15.3988H42.9101L39.611 10.5773L42.1603 6.09113Z" fill="white"/>
<path d="M61.4556 10.4571C60.9377 10.1177 60.3764 9.85159 59.7873 9.66618L59.2249 9.45105L59.0726 9.39322C58.7234 9.26061 58.3564 9.12123 58.3439 8.76136C58.3406 8.65453 58.3641 8.54859 58.4122 8.45344C58.4603 8.35828 58.5314 8.27701 58.6188 8.2172C58.8035 8.08835 59.0198 8.01388 59.2437 8.00207C59.7319 7.96794 60.2158 8.11405 60.6058 8.41336L60.6745 8.45765L62.0367 6.86947L61.9679 6.81252C61.7984 6.65943 61.6142 6.52378 61.4181 6.40757C61.0668 6.20403 60.6846 6.06078 60.2871 5.98363C59.7145 5.86027 59.1227 5.86027 58.5501 5.98363C57.9965 6.05783 57.4713 6.2758 57.0255 6.61637C56.7404 6.84226 56.5021 7.12281 56.3241 7.442C56.1462 7.76119 56.032 8.11276 55.9883 8.47663C55.9101 9.13327 56.0749 9.79596 56.4507 10.3369C56.9499 10.8966 57.6025 11.2931 58.3252 11.4758L58.4376 11.5138L58.6938 11.6023C59.6186 11.9187 59.881 12.0453 60.031 12.2351C60.1007 12.3306 60.14 12.4454 60.1434 12.5641C60.1434 13.0134 59.5998 13.1969 59.2312 13.3107C58.9734 13.3598 58.7084 13.3547 58.4526 13.296C58.1969 13.2372 57.9557 13.1259 57.7441 12.9691C57.4015 12.7371 57.1084 12.4381 56.8818 12.0896C56.844 12.1294 56.7188 12.2562 56.555 12.4219C56.0954 12.8871 55.3325 13.6591 55.3509 13.6777L55.3947 13.741C56.0752 14.6037 57.0285 15.2025 58.094 15.4368C58.3375 15.4844 58.5837 15.5161 58.8313 15.5317H59.0875C59.9292 15.5495 60.7538 15.2897 61.4368 14.7914C61.8989 14.4604 62.2533 13.9979 62.4553 13.4626C62.5782 13.1032 62.6217 12.7209 62.5828 12.3427C62.544 11.9644 62.4237 11.5994 62.2304 11.2733C62.0329 10.9482 61.7686 10.6698 61.4556 10.4571Z" fill="white"/>
<path d="M68.0289 9.66604C68.6161 9.85146 69.1753 10.1176 69.691 10.457C69.9985 10.6697 70.2582 10.9457 70.4533 11.2669C70.6466 11.593 70.7669 11.958 70.8058 12.3363C70.8446 12.7145 70.8011 13.0968 70.6782 13.4562C70.4763 13.9915 70.1218 14.454 69.6598 14.785C68.9767 15.2833 68.1521 15.5431 67.3104 15.5253H67.0542C66.8066 15.5101 66.5603 15.4784 66.3169 15.4304C65.2514 15.1961 64.2981 14.5973 63.6176 13.7346L63.5676 13.6713C63.5553 13.6547 64.158 13.0426 64.6133 12.5801C64.8525 12.3372 65.0511 12.1355 65.0985 12.0832C65.3284 12.4289 65.621 12.7273 65.9607 12.9627C66.1735 13.1197 66.4157 13.231 66.6725 13.2898C66.9294 13.3486 67.1953 13.3535 67.4541 13.3043C67.8228 13.1905 68.3601 13.007 68.3601 12.5577C68.3635 12.4389 68.3259 12.3226 68.2539 12.2287C68.1039 12.0389 67.8415 11.9123 66.9105 11.5959L66.6543 11.5074L66.5481 11.4694C65.8254 11.2868 65.1728 10.8903 64.6736 10.3305C64.2944 9.79104 64.1294 9.12703 64.2112 8.47016C64.257 8.10636 64.3733 7.7553 64.5534 7.43714C64.7336 7.11899 64.974 6.84001 65.2609 6.61623C65.7078 6.27765 66.2325 6.05989 66.7855 5.98349C67.3602 5.85999 67.9541 5.85999 68.5288 5.98349C68.9243 6.06086 69.3043 6.20412 69.6535 6.40743C69.8526 6.52204 70.039 6.65779 70.2096 6.81238L70.2721 6.86933L68.91 8.45751L68.8475 8.41322C68.4569 8.11495 67.9734 7.96896 67.4853 8.00194C67.2614 8.01375 67.0451 8.08822 66.8605 8.21707C66.775 8.27926 66.705 8.36087 66.6562 8.45536C66.6073 8.54985 66.581 8.65459 66.5793 8.76122C66.5981 9.12189 66.9605 9.26109 67.3166 9.39397L67.4603 9.45091L68.0289 9.66604Z" fill="white"/>
<path fill-rule="evenodd" clip-rule="evenodd" d="M50.5327 6.09114V7.00229H50.4202C49.7224 6.29474 48.7771 5.89456 47.7897 5.88867C47.1843 5.87655 46.5833 5.99368 46.0256 6.23243C45.468 6.47119 44.9662 6.8262 44.553 7.27437C43.7198 8.21931 43.273 9.45001 43.3034 10.7165C43.271 12.0043 43.717 13.2574 44.553 14.2282C44.9563 14.6767 45.4502 15.032 46.0012 15.27C46.5521 15.508 47.1472 15.6232 47.7459 15.6076C48.7346 15.5888 49.6854 15.2194 50.4327 14.5636H50.5327V15.3798H53.182V6.09114H50.5327ZM50.6639 10.7672C50.6905 11.5157 50.4436 12.2479 49.9704 12.8236C49.7435 13.0808 49.4636 13.2844 49.1505 13.42C48.8374 13.5555 48.4987 13.6198 48.1583 13.6082C47.8283 13.6138 47.5012 13.5438 47.2015 13.4036C46.9018 13.2634 46.6372 13.0565 46.4275 12.7983C45.9599 12.2106 45.72 11.4705 45.7527 10.7165C45.7315 9.9852 45.9761 9.27147 46.44 8.71069C46.6537 8.45639 46.9202 8.25304 47.2205 8.11521C47.5208 7.97738 47.8474 7.90848 48.1771 7.91344C48.5151 7.90278 48.8513 7.96819 49.1614 8.10496C49.4715 8.24172 49.7478 8.44644 49.9704 8.70436C50.4435 9.28259 50.6903 10.0167 50.6639 10.7672Z" fill="white"/>
<path fill-rule="evenodd" clip-rule="evenodd" d="M79.3511 7.00232V6.09118H82.0004V15.3798H79.3511V14.5636H79.2511C78.5038 15.2193 77.553 15.5888 76.5643 15.6076C75.9656 15.6231 75.3705 15.508 74.8196 15.27C74.2686 15.032 73.7747 14.6767 73.3714 14.2282C72.5354 13.2574 72.0895 12.0042 72.1218 10.7165C72.0914 9.45004 72.5382 8.21934 73.3714 7.2744C73.7863 6.8267 74.2892 6.47206 74.8478 6.23337C75.4064 5.99469 76.0082 5.87728 76.6143 5.8887C77.5996 5.89626 78.5424 6.29631 79.2386 7.00232H79.3511ZM78.7888 12.8235C79.2646 12.2494 79.5119 11.5161 79.4823 10.7671C79.5116 10.0163 79.2645 9.28113 78.7888 8.7044C78.5662 8.44648 78.2899 8.24176 77.9798 8.10499C77.6697 7.96822 77.3335 7.90281 76.9955 7.91347C76.6658 7.90852 76.3391 7.97742 76.0388 8.11524C75.7386 8.25307 75.4721 8.45642 75.2584 8.71073C74.7945 9.27151 74.5499 9.98524 74.5711 10.7165C74.5384 11.4705 74.7783 12.2106 75.2459 12.7982C75.4556 13.0564 75.7202 13.2634 76.0199 13.4036C76.3196 13.5439 76.6466 13.6138 76.9767 13.6081C77.3171 13.6198 77.6558 13.5555 77.9689 13.4199C78.282 13.2844 78.5619 13.0808 78.7888 12.8235Z" fill="white"/>
<path fill-rule="evenodd" clip-rule="evenodd" d="M8.07189 9.97273C8.08644 4.47884 12.4953 0 18.0356 0C23.522 0 28.0624 4.49367 27.9993 10C27.9993 15.5063 23.522 20 18.0356 20C12.5582 20 8.08654 15.5841 8.07189 10.0274V17.4683H4.54044L0 2.91138H8.07189V9.97273ZM14.315 10C14.315 12.0253 16.0176 13.7342 18.0356 13.7342C20.1166 13.7342 21.7562 12.0253 21.7562 10C21.7562 7.97469 20.0536 6.26582 18.0356 6.26582C16.0176 6.26582 14.315 7.97469 14.315 10Z" fill="#0070F0"/>
</g>
<defs>
<clipPath id="clip0_436_4138">
<rect width="82" height="20" fill="white"/>
</clipPath>
</defs>
</svg>
