<svg width="141" height="61" viewBox="0 0 141 61" fill="none" xmlns="http://www.w3.org/2000/svg">
<path d="M120.29 12.189H122.899V9.8546H120.29V12.189ZM129.078 2.57677C128.941 2.57677 128.803 2.71409 128.666 2.71409C128.391 2.85141 128.117 2.98872 127.842 3.26336C127.705 3.53799 127.43 3.81263 127.293 4.08726V2.71409H124.684V12.3263H127.293V4.63653H130.176V2.57677C130.039 2.57677 129.764 2.43945 129.627 2.43945C129.49 2.43945 129.215 2.43945 129.078 2.57677ZM137.866 2.57677V10.1292H135.395C135.12 10.1292 134.845 9.99192 134.571 9.8546C134.296 9.57997 134.159 9.30533 134.159 9.0307V2.57677H131.55V9.16801C131.55 9.8546 131.824 10.5412 132.236 11.0905C132.648 11.6397 133.06 11.9144 133.747 12.0517C134.159 12.189 134.708 12.189 135.669 12.189H140.613V2.57677C140.475 2.57677 137.866 2.57677 137.866 2.57677ZM58.3594 39.9271L58.4967 56.1306L62.0669 52.6977L65.3626 60.2501L67.9716 59.1516L64.8133 51.5991L70.1687 51.3245L58.3594 39.9271Z" fill="#E01524"/>
<path d="M29.2486 0.10498H13.0452C11.1227 0.10498 9.20027 0.516933 7.55246 1.34084C5.76734 2.16474 4.25684 3.26328 3.02099 4.63646C2.60903 5.18573 2.19708 5.735 1.64781 6.28427C1.23586 6.97086 0.961223 7.79476 0.686588 8.61867C0.274635 10.1292 0 11.777 0 13.5621V30.3148C0 31.4134 0.137318 32.3746 0.274635 33.0612C0.411953 33.7478 0.686588 34.4344 0.823905 34.8463C1.64781 36.6314 2.60903 38.1419 3.84489 39.3778C5.08075 40.6136 6.45392 41.5749 7.96442 42.1241C8.651 42.3988 9.47491 42.6734 10.4361 42.8107C11.3974 43.0854 12.4959 43.0854 13.5944 43.0854H29.1113C29.5233 43.0854 29.6606 42.948 29.6606 42.5361V35.9449C29.6606 35.5329 29.5233 35.3956 29.1113 35.3956H13.4571C12.0839 35.2583 10.9854 34.8463 10.1615 34.0224C9.33759 33.1985 8.92564 32.1 8.78832 30.7268V15.4845C8.78832 13.4248 9.20027 11.777 9.88686 10.4038C10.7108 9.16794 11.8093 8.34403 13.4571 7.93208H29.1113C29.5233 7.93208 29.6606 7.79476 29.6606 7.38281V0.654251C29.7979 0.242298 29.6606 0.10498 29.2486 0.10498ZM41.6072 0.10498H35.4279C35.016 0.10498 34.8786 0.242298 34.8786 0.654251V36.2195V36.3568V42.5361C34.8786 42.948 35.016 43.0854 35.4279 43.0854H41.6072C42.0192 43.0854 42.1565 42.948 42.1565 42.5361V36.3568V36.2195V0.654251C42.1565 0.242298 42.0192 0.10498 41.6072 0.10498ZM54.1031 11.9143H47.9238C47.5119 11.9143 47.3745 12.0516 47.3745 12.4636V42.5361C47.3745 42.948 47.5119 43.0854 47.9238 43.0854H54.1031C54.5151 43.0854 54.6524 42.948 54.6524 42.5361V12.4636C54.6524 12.0516 54.5151 11.9143 54.1031 11.9143ZM54.1031 0.10498H47.9238C47.5119 0.10498 47.3745 0.242298 47.3745 0.654251V6.83354C47.3745 7.24549 47.5119 7.38281 47.9238 7.38281H54.1031C54.5151 7.38281 54.6524 7.24549 54.6524 6.83354V0.654251C54.6524 0.242298 54.5151 0.10498 54.1031 0.10498ZM84.7249 11.9143H74.4261C71.8171 11.9143 69.4827 12.1889 67.5602 12.8755C65.6378 13.5621 63.99 14.386 62.7541 15.4845C61.5182 16.5831 60.557 17.9563 60.0078 19.6041C59.4585 21.2519 59.1838 23.037 59.1838 25.0968V30.1775C59.1838 31.688 59.4585 33.1985 60.1451 34.709C60.8317 36.2195 61.6556 37.5927 62.8914 38.9658C64.1273 40.339 65.6378 41.3002 67.2856 41.9868C69.0707 42.8107 70.9932 43.2227 73.1902 43.2227H84.5876C84.9995 43.2227 85.1369 43.0854 85.1369 42.6734V36.4941C85.1369 36.0822 84.9995 35.9449 84.5876 35.9449H73.0529C70.5812 35.9449 68.7961 35.2583 67.6975 34.0224C66.599 32.7865 66.0497 31.1387 66.0497 29.079V26.4699C66.0497 24.4102 66.599 22.7624 67.8349 21.2519C68.9334 19.8787 70.7185 19.1921 73.0529 19.1921H84.5876C84.9995 19.1921 85.1369 19.0548 85.1369 18.6428V12.4636C85.2742 12.0516 85.1369 11.9143 84.7249 11.9143ZM118.368 42.8107L106.284 26.6073C106.146 26.4699 106.146 26.4699 106.009 26.1953C105.872 25.9207 105.872 25.9207 105.872 25.7834C105.872 25.646 105.872 25.646 106.009 25.5087C106.146 25.3714 106.146 25.2341 106.284 25.2341L117.681 12.4636C117.818 12.3262 117.956 12.1889 117.956 12.0516C117.956 11.9143 117.818 11.9143 117.681 11.9143H109.854C109.442 11.9143 109.03 12.0516 108.755 12.4636L98.8686 23.449C98.594 23.8609 98.3193 24.2729 98.0447 24.6848C97.9074 25.0968 97.7701 25.5087 97.7701 25.9207C97.7701 26.3326 97.9074 26.7446 98.0447 27.2938C98.182 27.7058 98.4567 28.1178 98.7313 28.5297L109.305 42.6734C109.579 43.0854 109.991 43.2227 110.403 43.2227H118.23C118.505 43.2227 118.642 43.0854 118.368 42.8107ZM95.9849 0.10498H89.8057C89.3937 0.10498 89.2564 0.242298 89.2564 0.654251V36.2195V36.3568V42.5361C89.2564 42.948 89.3937 43.0854 89.8057 43.0854H95.9849C96.3969 43.0854 96.5342 42.948 96.5342 42.5361V0.654251C96.5342 0.242298 96.3969 0.10498 95.9849 0.10498Z" fill="white"/>
</svg>
