<svg width="265" height="36" viewBox="0 0 265 36" fill="none" xmlns="http://www.w3.org/2000/svg">
<g clip-path="url(#clip0_281_7840)">
<path d="M17.3817 0.723744C15.4318 0.328307 13.9455 0.0283203 11.9001 0.0283203C6.0231 0.0283203 3.67775 2.82365 3.67775 7.8007V11.4278H-0.00390625V17.3048H3.67775V35.1949H10.8502V17.3048H16.0863L16.5772 11.4278H10.8502V8.59158C10.8502 6.99619 11.0001 6.00078 13.291 6.00078C14.1364 6.00078 15.4863 6.15078 16.4817 6.35531L17.3817 0.723744ZM38.9944 35.1949V19.7047C38.9944 12.9823 37.1535 10.4324 28.7403 10.4324C25.9449 10.4324 22.3042 10.9369 20.0134 11.6324L20.9679 17.0185C23.2587 16.5685 25.3995 16.3094 27.5403 16.3094C31.372 16.3094 31.8219 17.1685 31.8219 19.6502V21.491H26.5858C21.6088 21.491 19.3725 23.4409 19.3725 28.3225C19.3725 32.4542 21.2133 35.6858 25.6995 35.6858C27.3358 35.6858 29.8311 35.1949 32.6128 33.6405L33.1173 35.1949H38.9944ZM31.8219 29.2634C30.7311 29.7679 29.6811 30.1088 28.1812 30.1088C26.7904 30.1088 26.2449 29.5634 26.2449 28.2134C26.2449 26.8771 26.8449 26.4817 28.3857 26.4817H31.8219V29.2634ZM50.6529 20.1956C50.6529 17.7139 51.6892 16.5685 54.58 16.5685C55.9845 16.5685 58.0708 16.8139 59.5707 17.1685L60.457 11.1824C58.0162 10.6369 56.2709 10.4324 54.58 10.4324C46.7122 10.4324 43.4805 13.3777 43.4805 20.3047V25.8272C43.4805 32.7541 46.7122 35.6858 54.58 35.6858C56.2709 35.6858 58.0162 35.4949 60.457 34.9359L59.5707 28.9634C57.8253 29.3588 56.4208 29.5634 54.58 29.5634C51.6892 29.5634 50.6529 28.418 50.6529 25.9226V20.1956ZM83.9242 25.5817V20.4956C83.9242 15.2186 82.1788 10.4324 74.1064 10.4324C66.0341 10.4324 63.7023 14.9186 63.7023 20.1547V25.8272C63.7023 31.7996 66.6886 35.6858 74.5564 35.6858C77.9381 35.6858 81.4834 34.9359 83.6651 34.145L82.6288 28.7725C80.488 29.4134 77.4881 29.8088 75.2518 29.8088C71.9656 29.8088 70.8747 29.0589 70.8747 26.2772V25.5817H83.9242ZM77.1472 20.1956H70.8747V19.1593C70.8747 17.4548 71.6656 16.064 74.161 16.064C76.6427 16.064 77.1472 17.4548 77.1472 19.1593V20.1956ZM110.664 25.4726V19.2002C110.664 13.7732 108.578 10.4324 103.191 10.4324C100.56 10.4324 98.269 11.0324 96.3191 11.7823V0.0283203L89.1467 1.02373V34.895C92.4874 35.4404 96.4145 35.6858 99.0053 35.6858C109.028 35.6858 110.664 31.2542 110.664 25.4726ZM96.3191 18.0139C97.669 17.3048 99.3598 16.6639 100.901 16.6639C102.796 16.6639 103.491 17.6594 103.491 19.2547V25.5272C103.491 27.818 102.851 29.4679 99.2644 29.4679C98.269 29.4679 97.369 29.4679 96.3191 29.3588V18.0139ZM125.609 35.6858C134.226 35.6858 136.558 30.8588 136.558 25.8817V20.2502C136.558 15.2731 134.226 10.4324 125.609 10.4324C116.991 10.4324 114.646 15.2731 114.646 20.2502V25.8817C114.646 30.8588 116.991 35.6858 125.609 35.6858ZM125.609 29.6588C123.018 29.6588 121.818 28.3634 121.818 26.0726V20.0456C121.818 17.7548 123.018 16.4594 125.609 16.4594C128.199 16.4594 129.386 17.7548 129.386 20.0456V26.0726C129.386 28.3634 128.199 29.6588 125.609 29.6588ZM151.503 35.6858C160.121 35.6858 162.466 30.8588 162.466 25.8817V20.2502C162.466 15.2731 160.121 10.4324 151.503 10.4324C142.885 10.4324 140.553 15.2731 140.553 20.2502V25.8817C140.553 30.8588 142.885 35.6858 151.503 35.6858ZM151.503 29.6588C148.912 29.6588 147.726 28.3634 147.726 26.0726V20.0456C147.726 17.7548 148.912 16.4594 151.503 16.4594C154.094 16.4594 155.294 17.7548 155.294 20.0456V26.0726C155.294 28.3634 154.094 29.6588 151.503 29.6588ZM174.861 35.1949V0.0283203L167.689 1.02373V35.1949H174.861ZM175.816 22.9909L182.279 35.1949H189.956L183.288 22.9909L189.656 10.9369H181.993L175.816 22.9909Z" fill="#3A589E"/>
<path d="M221.104 35.2355H223.694L213.304 5.38681H209.404L199 35.2355H201.604L204.386 27.3949H218.281L221.104 35.2355ZM211.327 6.91402L217.476 25.1041H205.191L211.327 6.91402ZM228.276 29.6312C228.276 33.5856 230.199 35.6855 234.453 35.6855C236.88 35.6855 239.607 34.84 241.816 33.1765L241.939 35.2355H244.325V4.13232L241.721 4.48685V13.6774C239.212 13.1865 237.289 12.9683 234.998 12.9683C230.062 12.9683 228.276 15.6954 228.276 19.6907V29.6312ZM241.721 30.5721C239.662 32.2356 237.33 33.3537 234.644 33.3537C231.685 33.3537 230.867 32.1538 230.867 29.6312V19.6907C230.867 16.7318 232.039 15.3 234.903 15.3C237.016 15.3 239.348 15.5591 241.721 16.05V30.5721ZM264.943 29.7266C264.943 25.6495 264.588 24.6132 258.166 23.0042C254.143 21.9679 253.952 21.6543 253.952 18.6544C253.952 16.2818 254.498 15.3 258.302 15.3C260.102 15.3 262.652 15.5591 264.397 15.9273L264.67 13.7183C262.965 13.2274 260.497 12.9683 258.479 12.9683C253.107 12.9683 251.361 14.9318 251.361 18.559C251.361 22.5542 251.811 23.9042 257.279 25.1996C262.256 26.3586 262.338 26.6859 262.338 29.8221C262.338 32.5901 261.534 33.3537 257.497 33.3537C255.888 33.3537 253.598 33.0401 251.716 32.4674L251.266 34.5673C252.889 35.2355 255.479 35.6855 257.675 35.6855C263.511 35.6855 264.943 33.6674 264.943 29.7266Z" fill="white"/>
</g>
<defs>
<clipPath id="clip0_281_7840">
<rect width="264.943" height="35.7143" fill="white"/>
</clipPath>
</defs>
</svg>
