<svg width="152" height="56" viewBox="0 0 152 56" fill="none" xmlns="http://www.w3.org/2000/svg">
<g clip-path="url(#clip0_281_7876)">
<mask id="mask0_281_7876" style="mask-type:luminance" maskUnits="userSpaceOnUse" x="2" y="0" width="63" height="78">
<path d="M2.74609 0.970215H64.3196V77.7949H2.74609V0.970215Z" fill="white"/>
</mask>
<g mask="url(#mask0_281_7876)">
<path d="M23.8253 7.99468C24.4143 6.44738 25.2242 5.02288 26.4267 3.86855C31.2367 -0.822475 39.188 0.35642 42.452 6.2509C44.9061 10.7209 47.5074 15.0926 50.0352 19.5135L62.6983 41.5686C66.2077 47.7333 62.4039 55.5189 55.4342 56.575C51.1641 57.2136 47.1639 55.2487 44.9552 51.4173L33.8135 32.0638C33.7399 31.9164 33.6418 31.7936 33.5436 31.6708C33.1509 31.3515 32.9791 30.8849 32.7337 30.4674L24.537 16.2469C23.5799 14.5768 23.1382 12.7594 23.1873 10.8437C23.2609 9.86126 23.3836 8.87885 23.8253 7.99468Z" fill="#3C8BD9"/>
<path d="M23.826 7.99512C23.6052 8.87929 23.4088 9.76346 23.3598 10.6968C23.2861 12.7598 23.8015 14.6755 24.8322 16.4684L32.9062 30.4433C33.1516 30.8608 33.348 31.2783 33.5934 31.6713L29.1514 39.3095L22.9426 50.0178C22.8444 50.0178 22.8199 49.9687 22.7953 49.895C22.7708 49.6985 22.8444 49.5266 22.8935 49.3301C23.8997 45.6461 23.0653 42.3796 20.5375 39.5797C18.9915 37.885 17.0282 36.9272 14.7704 36.6079C11.8255 36.1904 9.22412 36.9517 6.89273 38.7938C6.47553 39.113 6.20558 39.5797 5.71476 39.8253C5.61659 39.8253 5.56751 39.7762 5.54297 39.7025L9.05234 33.587L23.6543 8.26528C23.7033 8.16704 23.777 8.09336 23.826 7.99512Z" fill="#FABC04"/>
<path d="M5.64157 39.7757L7.04041 38.5231C13.0039 33.8075 21.9614 37.2214 23.262 44.6877C23.5811 46.4806 23.4093 48.1999 22.8694 49.9191C22.8448 50.0664 22.8203 50.1892 22.7712 50.3366C22.5503 50.7296 22.354 51.1471 22.1086 51.5401C19.9245 55.1504 16.7096 56.9433 12.4885 56.6732C7.65393 56.3293 3.85007 52.6944 3.18746 47.8806C2.86843 45.5473 3.33471 43.3615 4.53722 41.3475C4.78263 40.9054 5.07712 40.5125 5.34708 40.0704C5.46978 39.9722 5.4207 39.7757 5.64157 39.7757Z" fill="#34A852"/>
<path d="M5.63705 39.776C5.53888 39.8742 5.53888 40.0461 5.3671 40.0707C5.34255 39.8988 5.44072 39.8005 5.53888 39.6777L5.63705 39.776Z" fill="#FABC04"/>
<path d="M22.7672 50.337C22.6691 50.165 22.7672 50.0422 22.8654 49.9194L22.9636 50.0177L22.7672 50.337Z" fill="#E1C025"/>
</g>
<mask id="mask1_281_7876" style="mask-type:luminance" maskUnits="userSpaceOnUse" x="62" y="-140" width="141" height="176">
<path d="M62.2461 -139.347H202.145V35.2039H62.2461V-139.347Z" fill="white"/>
</mask>
<g mask="url(#mask1_281_7876)">
<path d="M73.7882 5.96338C67.4874 5.96338 62.2461 11.0414 62.2461 17.2913C62.2461 23.5412 67.4874 28.5634 73.7882 28.5634C77.1895 28.5634 79.6986 27.4474 81.7059 25.3827C83.769 23.318 84.3823 20.4721 84.3823 18.1841C84.3823 17.4587 84.3266 16.7891 84.2151 16.2311H73.7882V19.3002H81.2041C80.9811 21.0301 80.4235 22.3135 79.5313 23.2064C78.4719 24.2666 76.7434 25.4943 73.7882 25.4943C69.2159 25.4943 65.6474 21.8113 65.6474 17.2913C65.6474 12.7713 69.2159 9.08833 73.7882 9.08833C76.2416 9.08833 78.0816 10.037 79.364 11.3204L81.5386 9.14413C79.6986 7.35845 77.2452 5.96338 73.7882 5.96338ZM92.6904 14.0548C88.7315 14.0548 85.4418 17.1239 85.4418 21.4207C85.4418 25.6617 88.6758 28.7866 92.6904 28.7866C96.705 28.7866 99.939 25.6617 99.939 21.4207C99.939 17.1797 96.6493 14.0548 92.6904 14.0548ZM92.6904 25.8849C90.5158 25.8849 88.62 24.0434 88.62 21.4207C88.62 18.798 90.5158 16.9565 92.6904 16.9565C94.865 16.9565 96.7608 18.7422 96.7608 21.4207C96.7608 24.0434 94.865 25.8849 92.6904 25.8849ZM108.414 14.0548C104.4 14.0548 101.166 17.1239 101.166 21.4207C101.166 25.6617 104.4 28.7866 108.414 28.7866C112.373 28.7866 115.663 25.6617 115.663 21.4207C115.663 17.1797 112.429 14.0548 108.414 14.0548ZM108.414 25.8849C106.24 25.8849 104.344 24.0434 104.344 21.4207C104.344 18.798 106.24 16.9565 108.414 16.9565C110.589 16.9565 112.485 18.7422 112.485 21.4207C112.485 24.0434 110.645 25.8849 108.414 25.8849ZM124.083 14.0548C120.458 14.0548 117.169 17.2355 117.169 21.3649C117.169 25.4385 120.458 28.6192 124.083 28.6192C125.811 28.6192 127.149 27.838 127.874 26.9452H127.986V28.0054C127.986 30.7955 126.536 32.3022 124.138 32.3022C122.187 32.3022 121.016 30.9071 120.514 29.7353L117.726 30.9072C118.507 32.8602 120.626 35.2039 124.138 35.2039C127.874 35.2039 130.997 32.9719 130.997 27.6148V14.557H127.986V15.7288H127.874C127.149 14.836 125.811 14.0548 124.083 14.0548ZM124.361 25.7733C122.187 25.7733 120.347 23.9318 120.347 21.3649C120.347 18.798 122.187 16.9007 124.361 16.9007C126.536 16.9007 128.209 18.798 128.209 21.3649C128.209 23.9318 126.536 25.7733 124.361 25.7733ZM133.339 6.85622H136.517V28.396H133.339V6.85622ZM145.048 14.0548C141.256 14.0548 138.078 17.0123 138.078 21.4207C138.078 25.5501 141.201 28.7866 145.382 28.7866C148.784 28.7866 150.735 26.722 151.516 25.5501L149.007 23.876C148.17 25.1037 146.999 25.8849 145.382 25.8849C143.71 25.8849 142.539 25.1595 141.814 23.6528L151.683 19.5792L151.349 18.7422C150.735 17.1239 148.84 14.0548 145.048 14.0548ZM141.256 21.1975C141.145 18.3516 143.487 16.9007 145.104 16.9007C146.386 16.9007 147.501 17.5145 147.836 18.4632L141.256 21.1975Z" fill="white"/>
</g>
<mask id="mask2_281_7876" style="mask-type:luminance" maskUnits="userSpaceOnUse" x="-12" y="-114" width="141" height="176">
<path d="M-11.7852 -113.136H128.114V61.4148H-11.7852V-113.136Z" fill="white"/>
</mask>
<g mask="url(#mask2_281_7876)">
<path d="M83.2227 54.2723L90.5828 34.6855H93.4265L100.787 54.2723H97.9987L96.1029 48.971H87.9064L86.0106 54.2723H83.2227ZM88.7428 46.6273H95.2666L92.0883 37.8105H91.9768L88.7428 46.6273ZM103.352 52.654C102.125 51.2589 101.512 49.5848 101.512 47.576C101.512 45.6229 102.125 43.9488 103.352 42.4979C104.634 41.1028 106.084 40.4332 107.868 40.4332C108.872 40.4332 109.764 40.6564 110.544 41.047C111.381 41.4935 111.994 41.9957 112.44 42.7211H112.552L112.44 40.8796V34.6855H114.949V54.2723H112.552V52.4308H112.44C111.994 53.1004 111.381 53.6584 110.544 54.1049C109.708 54.5513 108.816 54.7187 107.868 54.7187C106.084 54.7187 104.578 54.0491 103.352 52.654ZM111.269 51.0915C112.106 50.1987 112.496 49.0268 112.496 47.576C112.496 46.1809 112.106 45.009 111.269 44.1162C110.489 43.2233 109.485 42.7769 108.258 42.7769C107.032 42.7769 106.028 43.2233 105.247 44.1162C104.411 45.009 104.021 46.1809 104.021 47.576C104.021 48.971 104.411 50.1429 105.247 51.0357C106.084 51.9286 107.087 52.375 108.258 52.375C109.485 52.4308 110.489 51.9844 111.269 51.0915ZM126.547 53.491C125.544 54.2723 124.261 54.7187 122.7 54.7187C121.362 54.7187 120.191 54.3839 119.131 53.6584C118.128 52.933 117.403 52.0402 116.957 50.8683L119.187 49.9197C119.522 50.7009 119.968 51.3705 120.637 51.817C121.25 52.2634 121.975 52.4866 122.7 52.4866C123.481 52.4866 124.15 52.3192 124.707 51.9844C125.265 51.6495 125.488 51.2031 125.488 50.7567C125.488 49.9197 124.819 49.25 123.536 48.8594L121.25 48.3014C118.63 47.6317 117.347 46.4041 117.347 44.5068C117.347 43.2792 117.849 42.3305 118.853 41.5493C119.856 40.8238 121.139 40.4332 122.644 40.4332C123.777 40.4256 124.891 40.7141 125.878 41.2703C126.826 41.8283 127.495 42.6095 127.885 43.5582L125.655 44.5068C125.376 43.9488 124.986 43.5024 124.428 43.1676C123.871 42.8327 123.202 42.6653 122.477 42.6653C121.808 42.6653 121.25 42.8327 120.693 43.1676C120.191 43.5024 119.912 43.893 119.912 44.3952C119.912 45.1764 120.637 45.7345 122.087 46.0135L124.094 46.5157C126.77 47.1853 128.053 48.5246 128.053 50.5335C128.108 51.7053 127.551 52.7098 126.547 53.491Z" fill="white"/>
</g>
</g>
<defs>
<clipPath id="clip0_281_7876">
<rect width="152" height="56" fill="white"/>
</clipPath>
</defs>
</svg>
