<svg width="252" height="60" viewBox="0 0 252 60" fill="none" xmlns="http://www.w3.org/2000/svg">
<g clip-path="url(#clip0_281_7817)">
<mask id="mask0_281_7817" style="mask-type:luminance" maskUnits="userSpaceOnUse" x="-1" y="0" width="252" height="60">
<path d="M250.468 0H-0.0078125V60H250.468V0Z" fill="white"/>
</mask>
<g mask="url(#mask0_281_7817)">
<path d="M9.15625 50.3874L13.7653 59.9998H13.8224L18.4379 50.3874L13.7971 45.7617L9.15625 50.3874Z" fill="#ED5338"/>
<path d="M14.2505 9C13.2664 9.50058 0.429688 16.2743 0.429688 27.0906C0.429688 36.3418 7.98445 50.3771 7.98445 50.3771L14.2505 44.1167L20.5164 50.3771C20.5164 50.3771 28.0712 36.3418 28.0712 27.0906C28.0712 16.2679 15.2345 9.50058 14.2505 9ZM18.3833 39.8903L14.2505 35.7526L10.1176 39.8903C9.90803 39.3137 7.13374 31.8303 7.13374 26.9449C7.13374 20.3549 13.7553 16.6671 14.2505 16.3947C14.7456 16.6671 21.3672 20.3549 21.3672 26.9449C21.3672 31.8303 18.5992 39.3137 18.3833 39.8903Z" fill="#C59368"/>
<path d="M27.6366 -0.00292969L22.9141 4.71062L27.6366 9.42413L32.3591 4.71062L27.6366 -0.00292969Z" fill="#C59368"/>
<path d="M17.1239 22.3863C17.1239 24.1669 15.6764 25.618 13.8861 25.618C12.0959 25.618 10.6484 24.1732 10.6484 22.3863C10.6484 20.5995 12.0959 19.1548 13.8861 19.1548C15.6764 19.1548 17.1239 20.5995 17.1239 22.3863Z" fill="#C59368"/>
<path d="M37.6328 36.9859V20.7329H42.5212L47.4096 26.2583L51.9297 20.7329H56.6721V36.9859H51.2441V29.0019L47.3017 33.5199H47.1937L43.0672 29.0019V36.9859H37.6392H37.6328Z" fill="white"/>
<path d="M58.9375 28.856C58.9375 26.3658 59.7691 24.3381 61.4007 22.7159C63.064 21.0875 65.2733 20.2954 67.9842 20.2954C70.695 20.2954 72.9042 21.0875 74.5358 22.7159C76.1991 24.3381 77.0308 26.3658 77.0308 28.856C77.0308 31.3462 76.1991 33.3738 74.5358 34.996C72.9106 36.6245 70.7013 37.4166 67.9842 37.4166C65.267 37.4166 63.064 36.6245 61.4007 34.996C59.7754 33.3738 58.9375 31.3462 58.9375 28.856ZM67.9842 32.3601C69.8633 32.3601 71.2409 31.023 71.2409 28.856C71.2409 26.6889 69.8315 25.3519 67.9842 25.3519C66.1367 25.3519 64.7273 26.7269 64.7273 28.856C64.7273 30.985 66.105 32.3601 67.9842 32.3601Z" fill="white"/>
<path d="M84.7479 36.9861H79.3203V20.7331H84.7479V29.224L90.5379 20.7331H95.9664V36.9861H90.5379V28.4953L84.7479 36.9861ZM86.2653 12.7871C86.2653 14.1939 86.7737 14.8845 87.7827 14.8845C88.6843 14.8845 89.1603 14.2002 89.1603 12.7871H93.8648C93.8648 16.3609 91.6937 18.9272 87.7827 18.9272C83.5487 18.9272 81.5616 16.4369 81.5616 12.7871H86.2653Z" fill="white"/>
<path d="M113.852 13.6166C113.274 14.4086 112.588 14.9536 111.75 15.2451C110.912 15.5365 109.903 15.79 108.709 15.9674C107.515 16.1511 106.468 16.4744 105.561 16.8735C103.097 17.9951 101.725 20.593 101.434 24.7117H101.504C102.551 22.4369 105.192 20.9162 107.947 20.9162C112.581 20.9162 115.509 24.0971 115.509 29.0079C115.509 31.3206 114.715 33.304 113.159 34.9325C111.604 36.5546 109.579 37.353 107.154 37.353C104.513 37.353 102.411 36.4469 100.856 34.6473C99.3009 32.8414 98.5391 30.3829 98.5391 27.24C98.5391 20.1938 100.564 15.828 104.582 14.1299C105.561 13.699 106.646 13.4075 107.77 13.2237C110.049 12.8245 111.318 12.6091 112.289 11.3481L113.845 13.6229L113.852 13.6166ZM107.084 34.6346C108.64 34.6346 109.941 34.0897 110.919 33.0442C111.934 31.9986 112.435 30.6933 112.435 29.1409C112.435 25.8523 110.519 23.6155 107.223 23.6155C105.776 23.6155 104.545 24.0147 103.535 24.8448C102.52 25.6749 101.871 26.6507 101.618 27.7723C101.618 31.9289 103.859 34.6346 107.084 34.6346Z" fill="white"/>
<path d="M121.012 36.9859H118.117V20.7329H121.012V32.8355L130.421 20.7329H133.316V36.9859H130.421V24.8833L121.012 36.9859Z" fill="white"/>
<path d="M138.489 36.7323C137.15 36.3014 136.21 35.7565 135.664 35.1418L137.15 32.9748C138.451 34.0203 140.476 34.7427 141.962 34.7427C144.456 34.7427 146.234 33.6591 146.234 32.0687C146.234 30.7317 145.041 29.9713 143.047 29.9713H140.298V27.6268H142.87C144.495 27.6268 145.695 26.613 145.695 25.314C145.695 23.8693 144.355 22.9695 142.222 22.9695C140.482 22.9695 138.857 23.5842 137.334 24.7754L136.21 22.5387C137.511 21.2016 140.045 20.3716 142.654 20.3716C146.564 20.3716 148.768 22.0318 148.768 24.7438C148.768 26.6193 147.827 27.8867 145.911 28.571V28.6407C148.082 28.8941 149.313 30.4846 149.313 32.4679C149.313 35.4651 146.489 37.347 142.4 37.347C141.137 37.347 139.829 37.1316 138.489 36.7323Z" fill="white"/>
<path d="M164.371 38.253V31.3906H155.325V38.253H152.43V22H155.325V28.6849H164.371V22H167.266V38.253H164.371Z" fill="white"/>
<path d="M184.442 35.2116C182.887 36.6183 180.823 37.3406 178.328 37.3406C175.688 37.3406 173.586 36.5803 171.993 35.0279C170.399 33.4754 169.605 31.416 169.605 28.8498C169.605 26.2835 170.367 24.3699 171.847 22.7795C173.332 21.151 175.395 20.3589 177.998 20.3589C180.132 20.3589 181.941 21.0433 183.388 22.4563C184.836 23.8313 185.559 25.5992 185.559 27.8043C185.559 28.5647 185.49 29.2109 185.375 29.7559H172.856C173.11 32.791 175.319 34.635 178.538 34.635C180.671 34.635 182.34 34.0584 183.534 32.9368L184.436 35.2116H184.442ZM172.678 27.4114H182.557C182.411 24.6994 180.639 23.0773 177.852 23.0773C175.065 23.0773 173.002 24.8451 172.678 27.4114Z" fill="white"/>
<path d="M201.64 34.635C200.301 36.3712 197.952 37.3406 195.381 37.3406C192.809 37.3406 190.676 36.5803 189.051 35.0279C187.457 33.4754 186.664 31.416 186.664 28.8498C186.664 26.4673 187.457 24.4459 189.014 22.8175C190.569 21.189 192.562 20.3589 194.911 20.3589C197.768 20.3589 199.907 21.0813 201.317 22.4879L199.977 24.7628C198.745 23.6412 197.19 23.0646 195.311 23.0646C193.794 23.0646 192.486 23.6095 191.369 24.7248C190.283 25.8083 189.737 27.1833 189.737 28.8434C189.737 30.5036 190.283 31.9863 191.4 33.0318C192.524 34.0774 193.934 34.6223 195.597 34.6223C197.476 34.6223 199.031 33.938 200.263 32.5249L201.64 34.6223V34.635Z" fill="white"/>
<path d="M205.814 33.1206C206.861 33.1206 207.731 34.0584 207.731 35.0342C207.731 36.1557 206.937 37.0936 205.814 37.0936C204.62 37.0936 203.75 36.1557 203.75 35.0342C203.75 34.0204 204.62 33.1206 205.814 33.1206Z" fill="white"/>
<path d="M210.211 43.2784V20.7269H213.106V22.6405C214.262 21.3035 216.433 20.3657 218.642 20.3657C220.851 20.3657 222.768 21.1261 224.108 22.6786C225.486 24.193 226.172 26.1826 226.172 28.6032C226.172 31.0237 225.378 33.1908 223.816 34.8509C222.261 36.5111 220.198 37.3411 217.702 37.3411C215.785 37.3411 214.23 36.98 213.106 36.2196V43.2784H210.211ZM213.106 25.3145V33.3682C214.37 34.1982 215.823 34.6291 217.449 34.6291C220.883 34.6291 223.093 32.1706 223.093 28.7045C223.093 25.2385 221.099 23.0714 217.81 23.0714C215.893 23.0714 214.3 23.8318 213.106 25.3082V25.3145Z" fill="white"/>
<path d="M236.912 43.2777V37.3404H236.512C233.795 37.3404 231.624 36.5483 230.037 34.9579C228.482 33.3675 227.688 31.3461 227.688 28.8559C227.688 26.505 228.482 24.5217 230.075 22.8616C231.668 21.2014 233.801 20.3714 236.481 20.3714H236.912V17.748H239.807V20.3714H240.277C242.918 20.3714 245.051 21.1634 246.644 22.7919C248.238 24.4204 249.032 26.4417 249.032 28.8623C249.032 31.2828 248.27 33.4118 246.715 35.0022C245.197 36.5547 243.058 37.3531 240.271 37.3531H239.8V43.2904H236.906L236.912 43.2777ZM236.62 34.6347H236.912V23.077H236.443C232.862 23.077 230.76 25.5356 230.76 28.8559C230.76 32.1762 232.97 34.6347 236.62 34.6347ZM239.807 23.077V34.6347H240.131C243.857 34.6347 245.959 32.322 245.959 28.8559C245.959 27.2655 245.451 25.8968 244.442 24.7752C243.426 23.6536 242.054 23.077 240.277 23.077H239.807Z" fill="white"/>
</g>
</g>
<defs>
<clipPath id="clip0_281_7817">
<rect width="251.053" height="60" fill="white"/>
</clipPath>
</defs>
</svg>
