<svg width="104" height="60" viewBox="0 0 104 60" fill="none" xmlns="http://www.w3.org/2000/svg">
<g clip-path="url(#clip0_281_7845)">
<path d="M43.2639 32.9986C39.0504 38.624 35.3909 37.2437 32.4487 31.6729C31.2046 32.9396 29.8562 34.0973 28.4214 35.1416C25.3158 37.0894 21.9877 35.2642 21.7834 31.5684C21.7107 30.2018 21.7834 28.8125 21.7198 27.4232C21.5927 26.9328 21.3838 26.4743 21.0978 26.0566C20.6301 26.2927 19.9581 26.4107 19.7311 26.7921C19.1953 27.791 18.7322 28.8307 18.3554 29.8976C17.806 31.2143 17.3202 32.5718 16.739 33.8522C16.1442 35.1688 14.6913 35.868 13.2883 35.5184C11.8944 35.3822 10.832 34.2063 10.8456 32.8034C10.7412 31.0327 10.9409 29.2393 10.8456 27.4595C10.7321 26.8738 10.5368 26.3018 10.2644 25.7705C9.78768 26.1655 9.10209 26.4561 8.85691 26.9601C7.92613 28.9805 7.09524 31.1644 6.16446 33.2347C5.88296 33.943 5.49249 34.6013 5.00213 35.1825C4.00324 36.3221 2.26882 36.4401 1.12918 35.4413C0.666065 35.0372 0.352779 34.4833 0.239269 33.8794C0.153002 33.5843 0.0985174 33.2846 0.0848963 32.9804C0.0848963 28.8352 -0.0513151 24.6128 0.021331 20.4267C0.057654 19.3143 0.420884 18.2338 1.05654 17.3212C1.71943 16.4631 2.65021 15.8456 3.69904 15.5596C5.29271 15.1328 6.08274 15.891 6.15538 17.6299C6.21895 18.9647 6.15538 20.3132 6.15538 21.6571L6.85006 21.8523C7.35858 21.3574 7.8217 20.8217 8.23942 20.2451C9.11117 18.8149 9.86487 17.303 10.7366 15.8637C11.3677 14.5607 12.857 13.9205 14.2373 14.3518C15.5948 14.6651 16.4938 15.9636 16.3077 17.3439V21.8387L16.8979 22.0249C17.3156 21.648 17.7106 21.2394 18.0693 20.8035C19.3134 19.3234 20.4712 17.757 21.7561 16.3178C22.2919 15.7048 22.9639 15.2236 23.713 14.9103C25.2159 14.1748 27.023 14.7968 27.7585 16.2996C28.04 16.8717 28.1308 17.5164 28.0218 18.1429C27.813 21.1486 27.6268 24.1497 27.4634 27.1553C27.4588 27.7001 27.4861 28.2495 27.5451 28.7898C29.7835 28.0679 31.4226 26.1428 31.7813 23.8182C31.9356 21.3393 32.2353 18.8739 32.6803 16.4313C32.9164 14.9512 34.1377 13.8206 35.6315 13.7071C36.9709 13.4302 38.3512 13.9614 39.1548 15.0737C40.0629 16.3768 40.0992 18.0975 39.2366 19.4324C37.9925 21.5027 38.0742 23.7501 38.3557 25.9658C38.492 26.9374 39.0368 27.8 39.8495 28.3494C40.9801 28.8988 41.9199 27.9045 42.3649 26.9101C43.1595 24.8761 43.8541 22.8012 44.4353 20.6946C44.8712 19.2326 45.0483 17.6889 45.4705 16.2406C46.1107 14.2202 47.5409 13.3303 49.2617 13.7344C51.0824 14.1839 52.2538 15.9546 51.9542 17.807C51.8316 18.8421 51.4275 19.7729 51.2686 20.7808C50.7691 23.8273 50.3378 26.8829 49.8474 30.1019C52.1903 29.3664 54.0518 28.7353 55.9588 28.2268C56.8532 28.0407 57.7704 27.9771 58.683 28.0497C60.4038 28.0497 61.212 28.9079 61.7886 30.8556C63.682 36.9986 67.7865 40.6762 74.1339 41.7431C83.2692 43.2868 91.9685 35.0917 91.0604 25.8659C90.9969 25.253 90.9152 24.6446 90.8743 24.0316C90.5065 22.3563 91.569 20.6991 93.2444 20.3313C94.9198 19.9636 96.577 21.026 96.9448 22.7013C96.9856 22.8966 97.0129 23.0918 97.0174 23.2916C98.2706 31.6819 95.6281 38.6512 88.9174 43.818C79.6732 50.8644 66.4652 49.0801 59.4186 39.8362C58.8419 39.078 58.3152 38.2789 57.843 37.448C56.4219 34.9827 55.9679 34.8374 53.3889 36.0723C53.2573 36.1495 53.1165 36.2176 52.9758 36.2812C50.3968 37.2437 49.4343 39.0553 49.1936 41.843C48.8531 46.2561 48.1584 50.6374 47.1232 54.9461C45.7339 60.4443 42.3694 61.4205 37.8018 58.0516C32.1581 53.9382 31.1229 47.5819 35.4408 42.1835C37.3069 40.0269 39.4136 38.0928 41.7292 36.4265C42.9188 35.7364 43.5363 34.3561 43.2639 32.9986ZM42.8371 43.2959L42.1969 43.0144C41.3115 44.1994 40.4943 45.4343 39.7542 46.7101C39.1458 47.9496 39.4273 49.4434 40.4489 50.3786C41.1118 51.0915 41.7973 51.2912 41.9835 50.0245C42.3195 47.7498 42.5193 45.5433 42.8371 43.2959Z" fill="#FF2D39"/>
<path d="M86.4166 10.0248C86.1532 7.85007 87.0568 5.698 88.7866 4.35863C90.0716 3.20995 91.2203 1.8842 92.4961 0.712818C92.9729 0.395001 93.4995 0.154368 94.0489 0C94.2759 0.476725 94.4349 0.980692 94.5257 1.50282C94.5892 3.33708 94.5756 5.17133 94.5257 7.01467C94.5257 8.29956 95.0932 8.86709 96.3781 8.85801H102.035C102.508 8.93973 102.966 9.0941 103.393 9.31203C103.27 9.82508 103.066 10.3109 102.78 10.7513C101.277 12.3449 99.6745 13.8568 98.1489 15.4232C97.1001 16.5174 95.5836 17.0259 94.0898 16.7807C92.0012 16.4629 89.9081 17.3256 88.6504 19.0281C87.0431 20.8715 85.1589 22.4651 83.4699 24.2585C82.9931 24.7988 82.7343 25.498 82.7343 26.2153C83.0022 29.7885 80.3188 32.8986 76.7501 33.1619C73.1768 33.4298 70.0667 30.7465 69.8033 27.1779C69.7852 26.9554 69.7806 26.7284 69.7897 26.5059C69.9123 22.9918 72.8635 20.2404 76.3778 20.363C76.5549 20.3675 76.7365 20.3811 76.9136 20.4038C77.8125 20.5537 78.7297 20.2222 79.329 19.5321C81.0589 17.7296 82.7979 15.9272 84.664 14.2609C86.0215 13.1031 86.8524 11.8591 86.4166 10.0248Z" fill="#FF2D39"/>
<path d="M57.2623 17.9473C57.4394 17.398 57.6618 16.8668 57.9252 16.3537C62.4111 8.63076 71.2603 4.54455 80.0504 6.14271C82.1935 6.55588 83.4058 8.00875 83.097 9.81123C82.7883 11.6137 81.1583 12.6897 78.9517 12.2857C72.9084 11.1778 66.8016 13.8747 63.5507 19.0915C63.2828 19.5864 62.9695 20.054 62.6199 20.4899C61.7618 21.5023 60.3316 21.8156 59.1284 21.2481C57.8934 20.726 57.2396 19.7226 57.2623 17.9473Z" fill="#FF2D39"/>
</g>
<defs>
<clipPath id="clip0_281_7845">
<rect width="103.393" height="60" fill="white"/>
</clipPath>
</defs>
</svg>
