<svg width="293" height="40" viewBox="0 0 293 40" fill="none" xmlns="http://www.w3.org/2000/svg">
<path d="M15.9471 33.7499H20.8573V5.51562H13.7152C6.53259 5.51562 2.75865 9.2125 2.75865 14.6562C2.75865 19.0031 4.82823 21.5625 8.52101 24.2031L2.10938 33.7499H7.42535L14.5674 23.0656L12.092 21.4C9.08913 19.3688 7.62825 17.7844 7.62825 14.3719C7.62825 11.3656 9.7384 9.33437 13.7558 9.33437H15.9471V33.7499ZM110.62 34.1561C112.852 34.1561 114.435 33.7499 115.612 32.8967V28.9563C114.394 29.8094 112.933 30.3375 110.904 30.3375C107.455 30.3375 106.035 27.6562 106.035 23.4313C106.035 19.0031 107.78 16.7281 110.945 16.7281C112.812 16.7281 114.638 17.3781 115.612 17.9875V13.8844C114.597 13.3156 112.812 12.9094 110.417 12.9094C104.249 12.9094 101.043 17.3375 101.043 23.5531C101.043 30.3781 104.168 34.1561 110.62 34.1561ZM80.4287 32.3686V28.4281C78.9272 29.4438 76.4113 30.3375 74.0576 30.3375C70.5272 30.3375 69.188 28.6719 68.9851 25.2594H80.6316V22.7C80.6316 15.5906 77.5069 12.9094 72.6779 12.9094C66.7938 12.9094 63.9938 17.4187 63.9938 23.5938C63.9938 30.7031 67.4837 34.1561 73.6518 34.1561C76.7359 34.1561 79.0084 33.3436 80.4287 32.3686ZM95.8491 33.7499H101.327L93.5766 22.9031L100.394 13.3156H95.5244L88.707 22.9031V13.3156H83.878V33.7499H88.707V23.8781L95.8491 33.7499ZM62.817 29.9313H60.6663V13.3156H46.585V15.0625C46.585 20.0594 46.2604 26.5188 44.556 29.9313H43.0545V38.4217H47.5183V33.7499H58.3532V38.4217H62.817V29.9313ZM36.1965 13.3156V21.4H29.7443V13.3156H24.9153V33.7499H29.7443V25.2188H36.1965V33.7499H41.0255V13.3156H36.1965ZM72.5968 16.7281C74.991 16.7281 75.7214 18.7188 75.7214 21.2781V21.6844H68.9851C69.1069 18.4344 70.2837 16.7281 72.5968 16.7281ZM55.8372 29.9313H49.0198C50.3589 26.8438 50.7242 21.2781 50.7242 17.7437V17.1344H55.8372V29.9313Z" fill="white"/>
<mask id="mask0_281_7798" style="mask-type:alpha" maskUnits="userSpaceOnUse" x="125" y="1" width="38" height="38">
<path d="M143.909 38.75C154.253 38.75 162.638 30.3553 162.638 20C162.638 9.64466 154.253 1.25 143.909 1.25C133.565 1.25 125.18 9.64466 125.18 20C125.18 30.3553 133.565 38.75 143.909 38.75Z" fill="white"/>
</mask>
<g mask="url(#mask0_281_7798)">
<path d="M162.638 1.25049H125.18V38.7505H162.638V1.25049Z" fill="url(#paint0_linear_281_7798)"/>
<path fill-rule="evenodd" clip-rule="evenodd" d="M167.572 3.50879C170.215 4.36011 171.642 7.18682 170.757 9.82242L161.224 38.228C160.339 40.8636 157.479 42.3102 154.835 41.4589C152.191 40.6074 150.765 37.7808 151.649 35.1452L154.839 25.6402L110.518 66.3608L103.465 58.667L147.756 17.9743L138.109 20.3214C135.41 20.9779 132.719 19.3133 132.098 16.6033C131.477 13.8932 133.162 11.164 135.86 10.5074L164.133 3.62904C165.195 3.20489 166.405 3.13304 167.572 3.50879Z" fill="url(#paint1_linear_281_7798)"/>
</g>
<mask id="mask1_281_7798" style="mask-type:luminance" maskUnits="userSpaceOnUse" x="170" y="1" width="123" height="38">
<path d="M292.794 1.25H170.742V38.75H292.794V1.25Z" fill="white"/>
</mask>
<g mask="url(#mask1_281_7798)">
<path d="M175.535 39.6405V33.7499H189.9V39.6405H194.486V29.9313H191.848V5.51562H175.291L174.885 17.1344C174.683 23.8375 174.155 27.7781 172.856 29.9313H170.949V39.6405H175.535ZM179.512 17.7844L179.796 9.33437H186.938V29.9313H177.807C178.659 27.9813 179.309 24.4875 179.512 17.7844Z" fill="white"/>
<path d="M197.742 13.3154V33.7497H202.044L209.429 21.1154V33.7497H214.096V13.3154H209.794L202.409 25.9498V13.3154H197.742Z" fill="white"/>
<path d="M222.612 13.3154H218.148V39.6403H222.977V31.3528C224.195 33.1809 225.98 34.1559 228.05 34.1559C232.757 34.1559 236.004 30.3779 236.004 23.5123C236.004 16.6873 232.838 12.9092 228.293 12.9092C226.021 12.9092 224.154 13.9654 222.856 15.9561L222.612 13.3154ZM226.833 30.3373C224.276 30.3373 222.977 28.2654 222.977 23.5529C222.977 18.7998 224.357 16.7279 227.076 16.7279C229.714 16.7279 231.012 18.7998 231.012 23.5123C231.012 28.2654 229.633 30.3373 226.833 30.3373Z" fill="white"/>
<path d="M254.857 32.3684V28.4279C253.355 29.4436 250.839 30.3373 248.486 30.3373C244.955 30.3373 243.616 28.6717 243.413 25.2592H255.06V22.6998C255.06 15.5904 251.935 12.9092 247.106 12.9092C241.222 12.9092 238.422 17.4186 238.422 23.5936C238.422 30.7029 241.912 34.1559 248.08 34.1559C251.164 34.1559 253.436 33.3434 254.857 32.3684ZM247.025 16.7279C249.419 16.7279 250.149 18.7186 250.149 21.2779V21.6842H243.413C243.535 18.4342 244.712 16.7279 247.025 16.7279Z" fill="white"/>
<path d="M270.264 33.7497H275.742L267.992 22.9029L274.809 13.3154H269.939L263.122 22.9029V13.3154H258.293V33.7497H263.122V23.8779L270.264 33.7497Z" fill="white"/>
<path d="M291.934 17.1342V13.3154H275.742V17.1342H281.423V33.7497H286.252V17.1342H291.934Z" fill="white"/>
</g>
<defs>
<linearGradient id="paint0_linear_281_7798" x1="130.075" y1="7.53568" x2="157.027" y2="33.7131" gradientUnits="userSpaceOnUse">
<stop stop-color="#315BEA"/>
<stop offset="1" stop-color="#2F2DD4"/>
</linearGradient>
<linearGradient id="paint1_linear_281_7798" x1="111.557" y1="38.2177" x2="187.139" y2="5.46631" gradientUnits="userSpaceOnUse">
<stop stop-color="#FFF01E"/>
<stop offset="1" stop-color="#FFD21E"/>
</linearGradient>
</defs>
</svg>
