<svg width="132" height="31" viewBox="0 0 132 31" fill="none" xmlns="http://www.w3.org/2000/svg">
<path d="M37.8939 15.107C37.8939 12.2285 40.0224 10.207 43.0581 10.207C46.0939 10.207 48.1439 12.1785 48.1439 15.107V19.6213H46.4581V17.6142C45.8224 19.0999 44.4081 19.8642 42.7439 19.8642C40.251 19.8642 37.8867 18.1356 37.8867 15.107H37.8939ZM46.3296 15.0285C46.3296 13.1713 45.0153 11.8356 43.0439 11.8356C41.0724 11.8356 39.7581 13.1713 39.7581 15.0285C39.7581 16.8856 41.0724 18.2213 43.0439 18.2213C45.0153 18.2213 46.3296 16.8856 46.3296 15.0285Z" fill="white"/>
<path d="M51.5898 14.9725C51.5898 11.9297 53.947 10.2011 56.447 10.2011C57.997 10.2011 59.3113 10.8725 60.0041 12.0583V6.42969H61.8398V14.9511C61.8398 17.944 59.7113 19.8511 56.7541 19.8511C53.797 19.8511 51.5898 17.844 51.5898 14.9654V14.9725ZM60.0041 15.0297C60.0041 13.1725 58.6898 11.8368 56.7327 11.8368C54.7756 11.8368 53.447 13.1725 53.447 15.0297C53.447 16.8868 54.7613 18.2225 56.7327 18.2225C58.7041 18.2225 60.0041 16.8868 60.0041 15.0297Z" fill="white"/>
<path d="M65.0859 10.4434H67.1002L70.2145 18.0362L73.3288 10.4434H75.2859L71.3002 19.6148H69.0716L65.0859 10.4434Z" fill="white"/>
<path d="M77.7031 15.0278C77.7031 12.2421 79.8317 10.1992 82.8531 10.1992C85.8746 10.1992 87.9603 12.2421 87.9603 15.0278V15.6778H79.6388C79.9103 17.3135 81.1888 18.2206 82.8531 18.2206C84.0888 18.2206 84.9603 17.8492 85.5246 17.0492H87.5531C86.8174 18.7564 85.0746 19.8564 82.8531 19.8564C79.8317 19.8564 77.7031 17.8135 77.7031 15.0278ZM86.0174 14.0992C85.6531 12.6349 84.3888 11.8349 82.846 11.8349C81.3031 11.8349 80.0603 12.6492 79.6888 14.0992H86.0174Z" fill="white"/>
<path d="M91.3945 14.8421C91.3945 11.7778 93.2874 10.1992 96.116 10.1992C98.9445 10.1992 100.837 11.7564 100.837 14.8421V19.6135H99.0017V14.8421C99.0017 12.8564 97.8588 11.8349 96.116 11.8349C94.3731 11.8349 93.2302 12.8564 93.2302 14.8421V19.6135H91.3945V14.8421Z" fill="white"/>
<path d="M104.645 7.75201C104.645 7.04487 105.187 6.52344 105.923 6.52344C106.659 6.52344 107.202 7.04487 107.202 7.75201C107.202 8.45915 106.659 8.99487 105.923 8.99487C105.187 8.99487 104.645 8.45915 104.645 7.75201ZM105.009 10.4449H106.845V19.6163H105.009V10.4449Z" fill="white"/>
<path d="M111.012 16.1434V7.19336H112.847V10.4434H118.112V12.0576H112.847V16.1434C112.847 17.5934 113.64 18.2219 114.84 18.2219C116.04 18.2219 116.855 17.6076 116.855 16.1434V15.9362H118.676V16.1434C118.676 18.6291 117.126 19.8576 114.847 19.8576C112.569 19.8576 111.019 18.6291 111.019 16.1434H111.012Z" fill="white"/>
<path d="M122.204 20.7141H124.039C124.482 21.757 125.432 22.2355 126.804 22.2355C128.582 22.2355 129.725 21.4213 129.725 19.3355V18.0141C129.125 19.1498 127.968 19.7784 126.532 19.7784C124.154 19.7784 122.125 18.3498 122.125 15.1355V10.4355H123.961V15.1355C123.961 17.1213 125.104 18.1284 126.846 18.1284C128.589 18.1284 129.732 17.0855 129.732 15.1355V10.4355H131.568V19.2927C131.568 22.4855 129.461 23.7713 126.811 23.7713C124.604 23.7713 122.768 22.7855 122.204 20.707V20.7141Z" fill="white"/>
<path d="M4.51527 25.8721C4.05813 25.4078 3.65813 24.9792 3.2867 24.515L4.02242 23.7292L4.97242 22.8221L7.50099 20.265L8.40813 19.3792C9.17956 18.6292 9.92956 17.7507 10.2367 16.4721L10.3581 15.9721H0.0224174C-0.00615401 15.3007 -0.00615401 14.7078 0.0152746 14.1364L10.3581 14.1221L10.2296 13.6221C9.97956 12.615 9.46528 11.765 8.61528 10.9292L3.30099 5.60781C3.65099 5.15067 4.04385 4.7221 4.50813 4.25781L9.65099 9.35781C11.2581 10.9507 12.0938 12.6364 12.2224 14.515V14.6721C12.251 14.9507 12.2724 15.2078 12.2438 15.4864C12.0724 17.1721 11.5581 18.5578 10.7081 19.615C10.251 20.1792 9.75099 20.6792 9.22242 21.1935L5.45813 24.9435L4.51527 25.865V25.8721Z" fill="white"/>
<path d="M13.033 30.1282C12.8687 30.1211 12.6759 30.0782 12.4973 30.0354L11.2188 29.7568L11.6402 28.2282L13.2045 22.3354C13.4259 21.4997 13.7545 20.7497 14.233 19.9782C14.6902 19.2354 15.2973 18.6068 16.083 18.0425C17.383 17.1139 18.8759 16.6211 20.4045 16.6211C20.933 16.6211 21.4688 16.6782 21.9902 16.7997C22.5545 16.9282 23.0688 17.0711 23.6188 17.2282L23.7973 17.2782L29.9545 18.9354C29.7616 19.5997 29.583 20.1354 29.3902 20.6639L23.5759 19.1068L22.0902 18.6997L21.1402 18.4854C20.9545 18.4425 20.7545 18.4211 20.5402 18.4211C20.283 18.4211 20.0045 18.4497 19.6688 18.5139L18.4402 18.7425L23.633 27.7497C23.1545 28.0854 22.6545 28.3854 22.0545 28.6711L17.9759 21.6068L16.8759 19.7497L16.5045 20.1068C15.7973 20.7854 15.3402 21.5425 15.1045 22.4068L13.3973 28.7211L13.033 30.1211V30.1282Z" fill="white"/>
<path d="M20.1961 13.5071C16.8961 13.3786 14.1032 11.1143 13.239 7.86429L11.2461 0.342857L12.4675 0.0857142C12.6532 0.0428571 12.8461 0.0214286 13.0461 0L15.1461 7.77857C15.739 9.97143 18.0747 11.6929 20.4604 11.6929C20.8818 11.6929 21.2961 11.6357 21.689 11.5286L26.4247 10.2429L27.7604 9.89286L29.4032 9.47143C29.639 10.0643 29.8104 10.6143 29.9747 11.2071C29.7747 11.2714 29.5675 11.3286 29.3461 11.3857L25.4604 12.4143L22.3532 13.2643C21.7675 13.4214 21.1461 13.5071 20.5032 13.5071C20.4032 13.5071 20.3104 13.5071 20.2104 13.5071H20.1961Z" fill="white"/>
<path d="M20.8666 6.85017C20.2666 6.85017 19.6381 6.41445 19.4952 5.89302L18.0095 0.435881L17.9023 0.0644531L18.3666 0.15731L19.9381 0.593024L21.0166 4.6716L21.2238 4.74302C21.3166 4.77874 21.4238 4.79302 21.5238 4.79302C21.6952 4.79302 21.8452 4.75017 21.9809 4.70731L24.6166 3.97874C24.9166 3.89302 25.1738 3.83588 25.4666 3.7716C25.9809 4.24302 26.4452 4.72874 26.9166 5.27874L25.4309 5.67874L21.1309 6.81445C21.0523 6.83588 20.9595 6.84302 20.8666 6.84302V6.85017Z" fill="white"/>
</svg>
