<svg width="24" height="24" viewBox="0 0 24 24">
<path d="M5.50051 11.5535C6.93275 10.6803 8.53152 9.95149 10.0253 9.219C12.5952 8.01922 15.1754 6.84024 17.7815 5.74261C18.2886 5.5556 19.1996 5.37274 19.2891 6.20443C19.2401 7.38172 19.0388 8.55211 18.9008 9.7225C18.5505 12.2963 18.1455 14.8613 17.7507 17.4266C17.6147 18.2812 16.6475 18.7235 16.0287 18.1766C14.5415 17.0648 13.0429 15.9638 11.5748 14.8262C11.0938 14.2853 11.5398 13.5085 11.9693 13.1223C13.1942 11.7862 14.4932 10.6511 15.6541 9.24595C15.9672 8.40902 15.042 9.11435 14.7368 9.33049C13.0599 10.6095 11.4241 11.9666 9.65615 13.0906C8.75308 13.6408 7.70055 13.1706 6.79789 12.8636C5.98857 12.4927 4.80267 12.119 5.50051 11.5535Z"/>
</svg>