<svg width="16" height="16" viewBox="0 0 16 16">
<path d="M2.16614 7.65154C3.29147 6.97115 4.54764 6.40325 5.72134 5.83248C7.74057 4.89759 9.76781 3.9789 11.8155 3.12361C12.2139 2.97788 12.9297 2.83539 13 3.48346C12.9615 4.40083 12.8034 5.31282 12.6949 6.22482C12.4197 8.23039 12.1015 10.2291 11.7913 12.228C11.6844 12.8939 10.9245 13.2386 10.4383 12.8124C9.2698 11.9461 8.09232 11.0881 6.93876 10.2017C6.56088 9.78022 6.91129 9.17496 7.24877 8.87398C8.21118 7.83289 9.23182 6.94837 10.1439 5.85348C10.3899 5.20132 9.66299 5.75093 9.42321 5.91936C8.10566 6.91597 6.82038 7.97344 5.43129 8.84934C4.72173 9.27807 3.89474 8.91168 3.18551 8.67245C2.54961 8.38344 1.61783 8.09219 2.16614 7.65154Z"/>
</svg>