<svg width="16" height="16" viewBox="0 0 16 16">
<path d="M1.50051 7.55346C2.93275 6.68029 4.53152 5.95149 6.02531 5.219C8.59524 4.01922 11.1754 2.84024 13.7815 1.74261C14.2886 1.5556 15.1996 1.37274 15.2891 2.20443C15.2401 3.38172 15.0388 4.55211 14.9008 5.7225C14.5505 8.29631 14.1455 10.8613 13.7507 13.4266C13.6147 14.2812 12.6475 14.7235 12.0287 14.1766C10.5415 13.0648 9.04293 11.9638 7.57476 10.8262C7.09382 10.2853 7.53979 9.50851 7.96931 9.12226C9.19419 7.78619 10.4932 6.65106 11.6541 5.24595C11.9672 4.40902 11.042 5.11435 10.7368 5.33049C9.05991 6.60948 7.42409 7.96657 5.65615 9.09064C4.75308 9.64084 3.70055 9.17064 2.79789 8.86363C1.98857 8.49274 0.802667 8.11896 1.50051 7.55346Z"/>
</svg>
