<svg width="24" height="24" viewBox="0 0 24 24">
<path fill-rule="evenodd" clip-rule="evenodd" d="M18.3815 8.49893C18.4853 8.17011 18.3815 7.93096 17.9219 7.93096H16.3946C16.0092 7.93096 15.8312 8.14022 15.7275 8.36442C15.7275 8.36442 14.9416 10.2776 13.8444 11.5182C13.4886 11.8769 13.3255 11.9965 13.1327 11.9965C13.0289 11.9965 12.8955 11.8769 12.8955 11.5481V8.48398C12.8955 8.09537 12.7769 7.91602 12.4507 7.91602H10.0487C9.81146 7.91602 9.66319 8.09537 9.66319 8.27474C9.66319 8.6484 10.2118 8.73808 10.2711 9.78434V12.0562C10.2711 12.5495 10.1821 12.6392 9.98938 12.6392C9.47043 12.6392 8.21013 10.711 7.45395 8.51388C7.30568 8.08043 7.15741 7.91602 6.7719 7.91602H5.22989C4.78508 7.91602 4.71094 8.12527 4.71094 8.34947C4.71094 8.75302 5.22989 10.7858 7.12776 13.4762C8.38805 15.3146 10.1821 16.3011 11.7983 16.3011C12.7769 16.3011 12.8955 16.0769 12.8955 15.7032V14.3132C12.8955 13.8648 12.9844 13.79 13.2958 13.79C13.5182 13.79 13.9186 13.9096 14.823 14.7915C15.8609 15.8377 16.0388 16.316 16.6171 16.316H18.1443C18.589 16.316 18.7966 16.0918 18.6781 15.6584C18.5446 15.2249 18.0405 14.5972 17.3881 13.8498C17.0322 13.4313 16.4984 12.968 16.3354 12.7438C16.1129 12.4448 16.1723 12.3253 16.3354 12.0562C16.3205 12.0562 18.1887 9.39574 18.3815 8.49893Z" />
</svg>