<svg width="16" height="16" viewBox="0 0 16 16">
<path fill-rule="evenodd" clip-rule="evenodd" d="M14.3815 4.49893C14.4853 4.17011 14.3815 3.93096 13.9219 3.93096H12.3946C12.0092 3.93096 11.8312 4.14022 11.7275 4.36442C11.7275 4.36442 10.9416 6.27758 9.84442 7.51816C9.48857 7.87687 9.32547 7.99645 9.13272 7.99645C9.02893 7.99645 8.89548 7.87687 8.89548 7.54805V4.48398C8.89548 4.09537 8.77687 3.91602 8.45067 3.91602H6.04869C5.81146 3.91602 5.66319 4.09537 5.66319 4.27474C5.66319 4.6484 6.21179 4.73808 6.2711 5.78434V8.05623C6.2711 8.54948 6.18214 8.63916 5.98938 8.63916C5.47043 8.63916 4.21013 6.71103 3.45395 4.51388C3.30568 4.08043 3.15741 3.91602 2.7719 3.91602H1.22989C0.785075 3.91602 0.710938 4.12527 0.710938 4.34947C0.710938 4.75302 1.22989 6.78577 3.12776 9.47617C4.38805 11.3146 6.18214 12.3011 7.79829 12.3011C8.77687 12.3011 8.89548 12.0769 8.89548 11.7032V10.3132C8.89548 9.86478 8.98445 9.79004 9.29583 9.79004C9.51822 9.79004 9.91856 9.90962 10.823 10.7915C11.8609 11.8377 12.0388 12.316 12.6171 12.316H14.1443C14.589 12.316 14.7966 12.0918 14.6781 11.6584C14.5446 11.2249 14.0405 10.5972 13.3881 9.84983C13.0322 9.43132 12.4984 8.96798 12.3354 8.74378C12.1129 8.44485 12.1723 8.32527 12.3354 8.05623C12.3205 8.05623 14.1887 5.39574 14.3815 4.49893Z" />
</svg>