<svg width="24" height="24" viewBox="0 0 24 24">
<path d="M17.7622 17.0626C20.7459 14.0793 20.7459 9.22356 17.7622 6.23747C14.7786 3.25417 9.92218 3.25417 6.93572 6.23747C4.45949 8.71339 3.97919 12.5043 5.74023 15.5103L4 20L8.48027 18.2528C11.4904 20.0209 15.2814 19.543 17.7622 17.0626ZM9.14627 8.29996L9.4363 8.00996C9.66108 7.78521 10.0236 7.78521 10.2484 8.00996L11.3134 9.0748C11.5382 9.29955 11.5382 9.66204 11.3134 9.8868L11.1258 10.0744C10.8221 10.378 10.7596 10.852 10.9817 11.2208C11.327 11.7981 11.9333 12.62 12.7917 13.1067C13.1578 13.3152 13.6201 13.2481 13.9192 12.949L14.1485 12.7197C14.3733 12.495 14.7358 12.495 14.9606 12.7197L16.0256 13.7846C16.2504 14.0093 16.2504 14.3718 16.0256 14.5966L15.7356 14.8866C15.1673 15.4548 14.3434 15.6914 13.5657 15.4965C12.6512 15.2672 11.4285 14.8005 10.4052 13.8589L10.0971 13.5408C9.21335 12.5412 8.7656 11.3694 8.54264 10.483C8.34415 9.70093 8.57615 8.87273 9.14627 8.29996Z"/>
</svg>