<svg width="16" height="16" viewBox="0 0 16 16">
<path d="M11.6392 11.1974C13.5236 9.31316 13.5236 6.24635 11.6392 4.36041C9.75478 2.47622 6.68759 2.47622 4.8014 4.36041C3.23747 5.92414 2.93412 8.31839 4.04636 10.2169L2.94727 13.0525L5.77691 11.949C7.67804 13.0657 10.0723 12.7639 11.6392 11.1974ZM6.19754 5.66303L6.38072 5.47987C6.52269 5.33792 6.75166 5.33792 6.89363 5.47987L7.56624 6.1524C7.70821 6.29435 7.70821 6.52329 7.56624 6.66525L7.44775 6.78373C7.25598 6.97547 7.21648 7.27483 7.35673 7.50777C7.57483 7.87238 7.9578 8.39151 8.4999 8.69888C8.73116 8.83052 9.02311 8.78817 9.21202 8.59928L9.35685 8.45447C9.49882 8.31253 9.72779 8.31253 9.86976 8.45447L10.5424 9.127C10.6843 9.26895 10.6843 9.49789 10.5424 9.63985L10.3592 9.82301C10.0003 10.1819 9.47992 10.3313 8.98876 10.2082C8.41117 10.0634 7.63894 9.76863 6.99266 9.17393L6.79804 8.97303C6.23991 8.34171 5.95712 7.60163 5.8163 7.04181C5.69094 6.54785 5.83747 6.02478 6.19754 5.66303Z"/>
</svg>